<svg xmlns="http://www.w3.org/2000/svg" viewBox="0 0 64 64" role="img" aria-label="CareerForge icon">
  <path d="M32 3.5L55.5 17V47L32 60.5L8.5 47V17L32 3.5Z" fill="#040404"/>
  <path d="M32 3.5L55.5 17V47L32 60.5L8.5 47V17L32 3.5Z" fill="none" stroke="#d5b75a" stroke-width="2.3" stroke-linejoin="round"/>
  <path d="M32 8.6L51.1 19.7V44.3L32 55.4L12.9 44.3V19.7L32 8.6Z" fill="none" stroke="#5d4c1d" stroke-width="1.15" stroke-linejoin="round"/>
  <path d="M39.4 20.2H27.5C23.7 20.2 20.8 23.1 20.8 26.9V37.1C20.8 40.9 23.7 43.8 27.5 43.8H39.4" fill="none" stroke="#d7ff3f" stroke-width="4.2" stroke-linecap="round" stroke-linejoin="round"/>
  <path d="M31.6 20.2V43.8" fill="none" stroke="#d7ff3f" stroke-width="4.2" stroke-linecap="round" stroke-linejoin="round"/>
  <path d="M31.6 20.2H40.2" fill="none" stroke="#d7ff3f" stroke-width="4.2" stroke-linecap="round" stroke-linejoin="round"/>
  <path d="M31.6 32H39" fill="none" stroke="#d7ff3f" stroke-width="4.2" stroke-linecap="round" stroke-linejoin="round"/>
  <path d="M46.7 13.6L48 16.3L50.7 17.6L48 18.9L46.7 21.6L45.4 18.9L42.7 17.6L45.4 16.3Z" fill="#e6ff6e"/>
</svg>
